# xmcd
#
# Track frame offsets:
#	150
#	14327
#	33669
#	59099
#
# Disc length: 947 seconds
#
# Revision: 2
# Processed by: cddbd v1.5.1PL0 Copyright (c) Steve Scherf et al.
# Submitted via: EasyCDDAExtractor 5.0.6
#
DISCID=3303b104
DTITLE=Soulwax - Any Minute Now
DYEAR=2004
DGENRE=Electronic
TTITLE0=Any Minute Now
TTITLE1=Hey Little Girl
TTITLE2=Any Minute Now
TTITLE3=NY Excuse
EXTD=
EXTT0=
EXTT1=
EXTT2=
EXTT3=
PLAYORDER=
